<svg width="24" height="25" viewBox="0 0 24 25" fill="none" xmlns="http://www.w3.org/2000/svg">
<path d="M4.25895 17.4248C3.14076 15.5466 2.74916 13.3263 3.15768 11.1808C3.56621 9.03531 4.74675 7.1122 6.47764 5.7726C8.20853 4.433 10.3707 3.76906 12.5581 3.90545C14.7455 4.04184 16.8078 4.96917 18.3575 6.51332C19.9073 8.05747 20.838 10.1122 20.9749 12.2917C21.1118 14.4712 20.4455 16.6255 19.101 18.3502C17.7565 20.0748 15.8264 21.2511 13.6732 21.6581C11.5199 22.0652 9.29149 21.675 7.40649 20.5609L7.40651 20.5608L4.29808 21.4457C4.16947 21.4823 4.03338 21.484 3.90391 21.4505C3.77443 21.4171 3.65628 21.3498 3.5617 21.2556C3.46713 21.1613 3.39956 21.0436 3.36601 20.9146C3.33246 20.7856 3.33415 20.65 3.37089 20.5219L4.25901 17.4247L4.25895 17.4248Z" stroke="#0B2128" stroke-width="1.5" stroke-linecap="round" stroke-linejoin="round"/>
</svg>
