<svg width="32" height="32" viewBox="0 0 32 32" fill="none" xmlns="http://www.w3.org/2000/svg">
<path d="M31.66 16.3607C31.66 15.3073 31.5666 14.3073 31.4066 13.334H16.34V19.3473H24.9666C24.58 21.3207 23.4466 22.9873 21.7666 24.1207V28.1207H26.9133C29.9266 25.334 31.66 21.2273 31.66 16.3607Z" fill="#B0BEC5"/>
<path d="M16.3399 31.9994C20.6599 31.9994 24.2733 30.5594 26.9133 28.1194L21.7666 24.1194C20.3266 25.0794 18.4999 25.6661 16.3399 25.6661C12.1666 25.6661 8.63327 22.8527 7.36661 19.0527H2.05994V23.1727C4.6866 28.3994 10.0866 31.9994 16.3399 31.9994Z" fill="#B0BEC5"/>
<path d="M7.36663 19.0528C7.0333 18.0928 6.85997 17.0662 6.85997 15.9995C6.85997 14.9328 7.04663 13.9062 7.36663 12.9462V8.82617H2.05996C0.966631 10.9862 0.339966 13.4128 0.339966 15.9995C0.339966 18.5862 0.966631 21.0128 2.05996 23.1728L7.36663 19.0528Z" fill="#B0BEC5"/>
<path d="M16.3399 6.33333C18.6999 6.33333 20.8066 7.14667 22.4733 8.73334L27.0333 4.17333C24.2733 1.58667 20.6599 0 16.3399 0C10.0866 0 4.6866 3.6 2.05994 8.82667L7.36661 12.9467C8.63327 9.14667 12.1666 6.33333 16.3399 6.33333Z" fill="#B0BEC5"/>
</svg>
