<svg width="97" height="32" viewBox="0 0 97 32" fill="none" xmlns="http://www.w3.org/2000/svg">
<path d="M41.51 16.84C41.51 21.4439 37.9162 24.8364 33.5058 24.8364C29.0954 24.8364 25.5017 21.4439 25.5017 16.84C25.5017 12.2037 29.0954 8.8436 33.5058 8.8436C37.9162 8.8436 41.51 12.2037 41.51 16.84ZM38.0061 16.84C38.0061 13.963 35.9232 11.9946 33.5058 11.9946C31.0884 11.9946 29.0055 13.963 29.0055 16.84C29.0055 19.6881 31.0884 21.6854 33.5058 21.6854C35.9232 21.6854 38.0061 19.6845 38.0061 16.84Z" fill="#B0BEC5"/>
<path d="M58.7775 16.84C58.7775 21.4439 55.1837 24.8364 50.7733 24.8364C46.3629 24.8364 42.7692 21.4439 42.7692 16.84C42.7692 12.2073 46.3629 8.8436 50.7733 8.8436C55.1837 8.8436 58.7775 12.2037 58.7775 16.84ZM55.2736 16.84C55.2736 13.963 53.1908 11.9946 50.7733 11.9946C48.3559 11.9946 46.273 13.963 46.273 16.84C46.273 19.6881 48.3559 21.6854 50.7733 21.6854C53.1908 21.6854 55.2736 19.6845 55.2736 16.84Z" fill="#B0BEC5"/>
<path d="M75.3259 9.3267V23.6827C75.3259 29.5881 71.8508 32 67.7426 32C63.8754 32 61.5479 29.4078 60.6702 27.288L63.7207 26.0153C64.2639 27.3168 65.595 28.8526 67.739 28.8526C70.3687 28.8526 71.9983 27.2267 71.9983 24.1658V23.0158H71.876C71.0918 23.9856 69.5809 24.8328 67.6743 24.8328C63.6848 24.8328 60.0298 21.3501 60.0298 16.8688C60.0298 12.3551 63.6848 8.8436 67.6743 8.8436C69.5773 8.8436 71.0882 9.69082 71.876 10.6318H71.9983V9.3303H75.3259V9.3267ZM72.2465 16.8688C72.2465 14.0532 70.3723 11.9946 67.9872 11.9946C65.5698 11.9946 63.5445 14.0532 63.5445 16.8688C63.5445 19.6557 65.5698 21.6854 67.9872 21.6854C70.3723 21.6854 72.2465 19.6557 72.2465 16.8688Z" fill="#B0BEC5"/>
<path d="M80.8117 0.912158V24.3462H77.3942V0.912158H80.8117Z" fill="#B0BEC5"/>
<path d="M94.1293 19.4719L96.8489 21.2889C95.9711 22.5904 93.8559 24.8329 90.201 24.8329C85.6683 24.8329 82.2831 21.3214 82.2831 16.8365C82.2831 12.0812 85.697 8.84008 89.8088 8.84008C93.9494 8.84008 95.9747 12.1425 96.6367 13.9271L97 14.8356L86.3338 19.2628C87.1504 20.8671 88.4202 21.6855 90.201 21.6855C91.9853 21.6855 93.2227 20.8058 94.1293 19.4719ZM85.7582 16.5949L92.8882 13.6278C92.4961 12.6292 91.3161 11.9334 89.9276 11.9334C88.1468 11.9334 85.6683 13.5089 85.7582 16.5949Z" fill="#B0BEC5"/>
<path d="M12.5656 14.7598V11.3673H23.9729C24.0844 11.9586 24.142 12.658 24.142 13.4151C24.142 15.9604 23.4477 19.1077 21.2101 21.3502C19.0337 23.6215 16.2529 24.8328 12.5692 24.8328C5.74141 24.8328 0 19.2591 0 12.4164C0 5.57369 5.74141 0 12.5692 0C16.3465 0 19.0373 1.48536 21.059 3.42136L18.6704 5.81524C17.2206 4.45246 15.2565 3.39252 12.5656 3.39252C7.57967 3.39252 3.68011 7.41957 3.68011 12.4164C3.68011 17.4133 7.57967 21.4403 12.5656 21.4403C15.7997 21.4403 17.6415 20.1388 18.8215 18.9563C19.7784 17.9973 20.4079 16.6273 20.6561 14.7562L12.5656 14.7598Z" fill="#B0BEC5"/>
</svg>
