<svg width="28" height="20" viewBox="0 0 28 20" fill="none" xmlns="http://www.w3.org/2000/svg">
<path opacity="0.9" d="M3.06572 6.71366C2.48275 6.12507 1.53301 6.12053 0.944427 6.70351C0.355844 7.28648 0.3513 8.23622 0.934277 8.8248L3.06572 6.71366ZM11.1429 17L10.0771 18.0556L11.1429 19.1315L12.2086 18.0556L11.1429 17ZM27.0657 3.05557C27.6487 2.46699 27.6442 1.51725 27.0556 0.934277C26.467 0.3513 25.5173 0.355844 24.9343 0.944427L27.0657 3.05557ZM0.934277 8.8248L10.0771 18.0556L12.2086 15.9444L3.06572 6.71366L0.934277 8.8248ZM12.2086 18.0556L27.0657 3.05557L24.9343 0.944427L10.0771 15.9444L12.2086 18.0556Z" fill="#39D148"/>
</svg>
