<svg width="16" height="14" viewBox="0 0 16 14" fill="none" xmlns="http://www.w3.org/2000/svg">
<path d="M3.06708 13.8951C3.33831 14.0763 3.66604 14.0194 4.06722 13.7502L8 11.1099L11.9328 13.7502C12.334 14.0194 12.6673 14.0763 12.9329 13.8951C13.1928 13.7139 13.255 13.4137 13.0968 12.9788L11.5542 8.74399L15.5152 6.13477C15.9164 5.87074 16.0746 5.59636 15.9673 5.30645C15.8656 5.02689 15.5717 4.87676 15.0632 4.88193L10.2037 4.90782L8.71762 0.657482C8.56505 0.217435 8.32773 0 8 0C7.67227 0 7.43495 0.217435 7.28238 0.657482L5.79629 4.90782L0.936826 4.88193C0.433928 4.87676 0.13445 5.02689 0.0327398 5.30645C-0.0746204 5.59636 0.0835947 5.87074 0.484783 6.13477L4.44581 8.74399L2.90886 12.9788C2.745 13.4137 2.80715 13.7139 3.06708 13.8951Z" fill="#FDD314"/>
</svg>
