<svg width="24" height="24" viewBox="0 0 24 24" fill="none" xmlns="http://www.w3.org/2000/svg">
<path d="M21.6803 2.97536C21.4736 2.79693 21.222 2.67843 20.9529 2.63271C20.6837 2.58698 20.4071 2.61577 20.1531 2.71596L2.85087 9.5133C2.54934 9.63181 2.29428 9.84476 2.12385 10.1203C1.95342 10.3958 1.87678 10.7191 1.9054 11.0419C1.93402 11.3646 2.06636 11.6694 2.28262 11.9106C2.49888 12.1518 2.78744 12.3166 3.10512 12.3802L7.50003 13.2594V18.7487C7.49976 19.0455 7.58758 19.3357 7.75235 19.5825C7.91712 19.8294 8.15144 20.0217 8.42563 20.1353C8.69982 20.2489 9.00154 20.2786 9.2926 20.2205C9.58365 20.1625 9.85094 20.0194 10.0606 19.8094L12.4929 17.3772L16.1844 20.6257C16.4561 20.867 16.8069 21.0006 17.1703 21.0011C17.3283 21.0009 17.4853 20.976 17.6356 20.9273C17.8835 20.8486 18.1065 20.7064 18.2823 20.5147C18.458 20.323 18.5805 20.0885 18.6373 19.8347L22.1637 4.44733C22.2251 4.18124 22.2125 3.90342 22.1273 3.64397C22.0421 3.38451 21.8875 3.15333 21.6803 2.97546V2.97536ZM8.07621 11.8448L3.39949 10.9094L16.4946 5.7648L8.07621 11.8448ZM9.00003 18.748V14.3035L11.3644 16.3841L9.00003 18.748ZM17.1752 19.4996L9.45096 12.7021L20.5739 4.66896L17.1752 19.4996Z" fill="#979B9D"/>
</svg>
