<svg width="19" height="19" viewBox="0 0 19 19" fill="none" xmlns="http://www.w3.org/2000/svg">
<path d="M13.5 19.0005C6.05606 19.0005 0 12.9444 0 5.50045C0.00128132 4.22333 0.467468 2.99035 1.31147 2.03186C2.15547 1.07337 3.31955 0.454932 4.58625 0.292075C4.90858 0.253188 5.23484 0.319688 5.51624 0.481628C5.79764 0.643569 6.01905 0.892249 6.14738 1.19048L8.031 5.58529C8.12871 5.81263 8.16854 6.06064 8.14695 6.30714C8.12535 6.55364 8.043 6.79094 7.90725 6.99782L6.34772 9.38076L6.34753 9.38095C7.05175 10.8128 8.2131 11.969 9.648 12.6669L11.9958 11.1018C12.2032 10.963 12.4421 10.8783 12.6907 10.8555C12.9392 10.8327 13.1896 10.8724 13.4188 10.9711L17.8099 12.853C18.1081 12.9813 18.3569 13.2027 18.5188 13.4841C18.6808 13.7655 18.7473 14.0918 18.7084 14.4141C18.5455 15.6808 17.9271 16.8449 16.9686 17.6889C16.0101 18.533 14.7771 18.9992 13.5 19.0005ZM4.76869 1.78148C3.86517 1.89876 3.0352 2.34083 2.43372 3.02517C1.83223 3.70951 1.50034 4.58935 1.5 5.50045C1.5036 8.68194 2.76904 11.7321 5.01869 13.9818C7.26835 16.2314 10.3185 17.4969 13.5 17.5005C14.412 17.4997 15.2926 17.167 15.9772 16.5644C16.6619 15.9619 17.1037 15.1307 17.2203 14.2261L12.828 12.3499L10.481 13.915C10.2652 14.0591 10.0158 14.1447 9.75704 14.1634C9.49829 14.1822 9.23911 14.1334 9.00488 14.0219C7.26039 13.1765 5.84904 11.7716 4.99575 10.031C4.88369 9.79816 4.83371 9.5403 4.85066 9.28245C4.86761 9.02459 4.95092 8.7755 5.0925 8.55932L6.65213 6.1762L4.76869 1.78148Z" fill="#0B2128"/>
</svg>
