<svg width="18" height="18" viewBox="0 0 18 18" fill="none" xmlns="http://www.w3.org/2000/svg">
<path d="M14.8749 3.09155C14.1109 2.31983 13.2009 1.70794 12.198 1.2916C11.195 0.875249 10.1192 0.66277 9.03325 0.666554C4.48325 0.666554 0.774919 4.37489 0.774919 8.92489C0.774919 10.3832 1.15825 11.7999 1.87492 13.0499L0.708252 17.3332L5.08325 16.1832C6.29158 16.8416 7.64992 17.1916 9.03325 17.1916C13.5833 17.1916 17.2916 13.4832 17.2916 8.93322C17.2916 6.72489 16.4333 4.64989 14.8749 3.09155ZM9.03325 15.7916C7.79992 15.7916 6.59159 15.4582 5.53325 14.8332L5.28325 14.6832L2.68325 15.3666L3.37492 12.8332L3.20825 12.5749C2.52304 11.4807 2.1592 10.2159 2.15825 8.92489C2.15825 5.14155 5.24158 2.05822 9.02492 2.05822C10.8583 2.05822 12.5833 2.77489 13.8749 4.07489C14.5145 4.71152 15.0213 5.46877 15.3661 6.30274C15.7108 7.13671 15.8866 8.03081 15.8833 8.93322C15.8999 12.7166 12.8166 15.7916 9.03325 15.7916ZM12.7999 10.6582C12.5916 10.5582 11.5749 10.0582 11.3916 9.98322C11.1999 9.91655 11.0666 9.88322 10.9249 10.0832C10.7833 10.2916 10.3916 10.7582 10.2749 10.8916C10.1583 11.0332 10.0333 11.0499 9.82492 10.9416C9.61658 10.8416 8.94992 10.6166 8.16658 9.91655C7.54992 9.36655 7.14158 8.69155 7.01658 8.48322C6.89992 8.27489 6.99992 8.16655 7.10825 8.05822C7.19992 7.96655 7.31659 7.81655 7.41659 7.69989C7.51659 7.58322 7.55825 7.49155 7.62492 7.35822C7.69159 7.21655 7.65825 7.09989 7.60825 6.99989C7.55825 6.89989 7.14158 5.88322 6.97492 5.46655C6.80825 5.06655 6.63325 5.11655 6.50825 5.10822H6.10825C5.96658 5.10822 5.74992 5.15822 5.55825 5.36655C5.37492 5.57489 4.84159 6.07489 4.84159 7.09155C4.84159 8.10822 5.58325 9.09155 5.68325 9.22489C5.78325 9.36655 7.14158 11.4499 9.20825 12.3416C9.69992 12.5582 10.0833 12.6832 10.3833 12.7749C10.8749 12.9332 11.3249 12.9082 11.6833 12.8582C12.0833 12.7999 12.9083 12.3582 13.0749 11.8749C13.2499 11.3916 13.2499 10.9832 13.1916 10.8916C13.1333 10.7999 13.0083 10.7582 12.7999 10.6582Z" fill="#485B63"/>
</svg>
