<svg width="90" height="90" viewBox="0 0 90 90" fill="none" xmlns="http://www.w3.org/2000/svg">
<circle cx="45" cy="45" r="45" fill="#F3F6F9"/>
<path d="M45.5568 57.358C50.6321 57.358 54.4034 54.1747 54.4034 49.892C54.4034 46.5682 52.4347 44.152 49.1364 43.6023V43.3977C51.7827 42.5923 53.4318 40.419 53.4318 37.4659C53.4318 33.7585 50.5043 30.4602 45.6591 30.4602C41.1335 30.4602 37.375 33.2472 37.2216 37.3636H40.2898C40.4048 34.7557 42.8849 33.2216 45.608 33.2216C48.4972 33.2216 50.3636 34.973 50.3636 37.6193C50.3636 40.3807 48.2031 42.1705 45.0966 42.1705H43V44.983H45.0966C49.0724 44.983 51.2841 47.0028 51.2841 49.892C51.2841 52.6662 48.8679 54.5455 45.5057 54.5455C42.4759 54.5455 40.0724 52.9858 39.8807 50.4545H36.6591C36.8509 54.571 40.4815 57.358 45.5568 57.358Z" fill="#0E8EC7"/>
</svg>
