<svg width="120" height="24" viewBox="0 0 120 24" fill="none" xmlns="http://www.w3.org/2000/svg">
<path d="M7.602 23.6301H3.08028V11.9821H0V8.18972H3.08016V5.49119C3.08016 2.29342 4.44252 0 8.952 0C9.90576 0 11.4031 0.198651 11.4031 0.198651V3.72007H9.8304C8.22792 3.72007 7.60224 4.22376 7.60224 5.61631V8.18972H11.3431L11.01 11.9821H7.60212L7.602 23.6301ZM17.9772 7.88666C17.9113 7.88666 17.8435 7.88914 17.7764 7.89088C13.5836 7.89088 11.6653 11.1499 11.6653 15.7762C11.6653 21.604 14.1536 23.9365 17.8092 23.9365C19.9007 23.9365 21.2748 23.0268 22.11 21.3292V23.6317H26.4108V8.19134H22.11V10.5659C21.428 9.03815 20.0155 7.90477 17.9772 7.88666ZM19.0708 11.5352C20.8318 11.5352 21.8887 12.8045 21.8887 14.9635L21.8928 17.1686C21.8928 18.6238 21.0198 20.3262 19.0708 20.3262C16.0744 20.3262 16.1544 16.9828 16.1544 15.8693C16.1544 12.1236 17.7509 11.5352 19.0708 11.5352ZM28.1477 15.9123C28.1477 14.0361 28.0608 7.89671 35.8013 7.89671C38.9084 7.89671 40.2059 8.91762 40.2059 8.91762L39.1631 12.2598C39.1631 12.2598 37.8673 11.5225 36.1789 11.5225C34.0164 11.5225 32.6365 12.818 32.6365 15.0973L32.6389 16.7316C32.6389 18.9217 33.9703 20.3837 36.1834 20.3837C37.7215 20.3837 39.1392 19.6395 39.1392 19.6395L40.1794 22.9119C40.1794 22.9119 38.993 23.9392 35.823 23.9392C28.4528 23.9392 28.1478 18.4311 28.1478 15.9123H28.1477ZM65.423 7.89088C69.616 7.89088 71.5645 11.1499 71.5645 15.7762C71.5645 21.604 69.0761 23.9365 65.4205 23.9365C63.329 23.9365 61.783 23.027 60.9478 21.3292V23.6317L56.7011 23.63V0.469472L61.21 0.0631171V10.3567C61.8607 8.55578 63.9994 7.89088 65.4232 7.89088H65.423ZM64.159 11.5352C62.398 11.5352 61.21 12.8045 61.21 14.9635L61.2058 17.1686C61.2031 18.6238 62.0285 20.3262 64.159 20.3262C67.1554 20.3262 67.0753 16.9828 67.0753 15.8693C67.0753 12.1236 65.479 11.5352 64.159 11.5352ZM48.0292 7.90365C43.2736 7.90365 40.7629 10.583 40.7629 15.3444V16.229C40.7629 22.4089 44.2886 24 48.492 24C52.5776 24 54.427 22.8191 54.427 22.8191L53.5832 19.6744C53.5832 19.6744 51.4079 20.6309 49.0326 20.6309C46.5702 20.6309 45.5112 19.9823 45.2398 17.537H54.7874V15.0142C54.7874 9.84924 51.9697 7.90353 48.029 7.90353L48.0292 7.90365ZM48.1438 11.0526C49.7899 11.0526 50.8566 12.0957 50.798 14.5148H45.248C45.3443 11.9687 46.4946 11.0527 48.1438 11.0527V11.0526ZM80.555 7.88245C75.6714 7.88245 73.1004 10.7263 73.1004 15.8227C73.1004 22.8152 77.5322 23.9407 80.5632 23.9407C85.0003 23.9407 87.9523 21.4722 87.9523 15.8862C87.9523 10.0721 84.6331 7.88245 80.555 7.88245V7.88245ZM80.4936 11.5478C82.641 11.5478 83.4919 13.2086 83.4919 15.099V16.7243C83.4919 19.0144 82.3013 20.339 80.4854 20.339C78.7872 20.339 77.5937 19.0999 77.5937 16.7243V15.099C77.5937 12.5654 79.0139 11.5478 80.4936 11.5478V11.5478ZM96.9348 7.88245C92.0512 7.88245 89.4802 10.7263 89.4802 15.8227C89.4802 22.8152 93.912 23.9407 96.943 23.9407C101.38 23.9407 104.332 21.4722 104.332 15.8862C104.332 10.0721 101.013 7.88245 96.9348 7.88245V7.88245ZM96.8734 11.5478C99.0208 11.5478 99.8716 13.2086 99.8716 15.099V16.7243C99.8716 19.0144 98.6809 20.339 96.8652 20.339C95.167 20.339 93.9734 19.0999 93.9734 16.7243V15.099C93.9734 12.5654 95.3936 11.5478 96.8734 11.5478V11.5478ZM106.036 23.6301V0.469472L110.558 0.0631171V15.5868L115.044 8.18972H119.82L115.14 15.851L120 23.6301H115.211L110.558 16.0766V23.6301H106.036Z" fill="#B0BEC5"/>
</svg>
