<svg width="16" height="17" viewBox="0 0 16 17" fill="none" xmlns="http://www.w3.org/2000/svg">
<g clip-path="url(#clip0_164_1760)">
<path d="M12.166 9.51628C11.642 10.5744 10.932 11.6286 10.206 12.5752C9.5173 13.4675 8.7809 14.3223 8 15.1359C7.21908 14.3224 6.48268 13.4676 5.794 12.5752C5.068 11.6286 4.358 10.5744 3.834 9.51628C3.304 8.44716 3 7.4458 3 6.58692C3 5.26564 3.52678 3.99847 4.46447 3.06419C5.40215 2.1299 6.67392 1.60502 8 1.60502C9.32608 1.60502 10.5979 2.1299 11.5355 3.06419C12.4732 3.99847 13 5.26564 13 6.58692C13 7.4458 12.695 8.44716 12.166 9.51628ZM8 16.5507C8 16.5507 14 10.8853 14 6.58692C14 5.00138 13.3679 3.48078 12.2426 2.35964C11.1174 1.2385 9.5913 0.608643 8 0.608643C6.4087 0.608643 4.88258 1.2385 3.75736 2.35964C2.63214 3.48078 2 5.00138 2 6.58692C2 10.8853 8 16.5507 8 16.5507Z" fill="#0E8EC7"/>
<path d="M8 8.5798C7.46957 8.5798 6.96086 8.36985 6.58579 7.99613C6.21071 7.62242 6 7.11555 6 6.58704C6 6.05853 6.21071 5.55166 6.58579 5.17795C6.96086 4.80423 7.46957 4.59428 8 4.59428C8.53043 4.59428 9.03914 4.80423 9.41421 5.17795C9.78929 5.55166 10 6.05853 10 6.58704C10 7.11555 9.78929 7.62242 9.41421 7.99613C9.03914 8.36985 8.53043 8.5798 8 8.5798ZM8 9.57618C8.79565 9.57618 9.55871 9.26125 10.1213 8.70068C10.6839 8.14011 11 7.37981 11 6.58704C11 5.79427 10.6839 5.03397 10.1213 4.4734C9.55871 3.91283 8.79565 3.5979 8 3.5979C7.20435 3.5979 6.44129 3.91283 5.87868 4.4734C5.31607 5.03397 5 5.79427 5 6.58704C5 7.37981 5.31607 8.14011 5.87868 8.70068C6.44129 9.26125 7.20435 9.57618 8 9.57618V9.57618Z" fill="#0E8EC7"/>
</g>
<defs>
<clipPath id="clip0_164_1760">
<rect width="16" height="15.9421" fill="white" transform="translate(0 0.608643)"/>
</clipPath>
</defs>
</svg>
