<svg width="24" height="25" viewBox="0 0 24 25" fill="none" xmlns="http://www.w3.org/2000/svg">
<path d="M16.5 21.8152C9.05606 21.8152 3 15.7811 3 8.36411C3.00128 7.09161 3.46747 5.8631 4.31147 4.90809C5.15547 3.95307 6.31955 3.33687 7.58625 3.1746C7.90858 3.13586 8.23484 3.20212 8.51624 3.36347C8.79764 3.52482 9.01905 3.7726 9.14737 4.06975L11.031 8.44864C11.1287 8.67516 11.1685 8.92227 11.1469 9.16787C11.1254 9.41348 11.043 9.64992 10.9073 9.85606L9.34772 12.2304L9.34753 12.2305C10.0517 13.6572 11.2131 14.8092 12.648 15.5046L14.9958 13.9452C15.2032 13.8069 15.4421 13.7225 15.6907 13.6998C15.9392 13.677 16.1896 13.7166 16.4188 13.815L20.8099 15.69C21.1081 15.8178 21.3569 16.0384 21.5188 16.3188C21.6808 16.5992 21.7473 16.9243 21.7084 17.2455C21.5455 18.5076 20.9271 19.6675 19.9686 20.5084C19.0101 21.3494 17.7771 21.8139 16.5 21.8152ZM7.76869 4.65861C6.86517 4.77547 6.0352 5.21593 5.43372 5.89779C4.83223 6.57966 4.50034 7.45631 4.5 8.36411C4.5036 11.5341 5.76904 14.5732 8.01869 16.8147C10.2683 19.0562 13.3185 20.317 16.5 20.3206C17.412 20.3199 18.2926 19.9884 18.9772 19.388C19.6619 18.7876 20.1037 17.9595 20.2203 17.0582L15.828 15.1888L13.481 16.7481C13.2652 16.8917 13.0158 16.977 12.757 16.9957C12.4983 17.0143 12.2391 16.9657 12.0049 16.8546C10.2604 16.0124 8.84904 14.6126 7.99575 12.8783C7.88369 12.6462 7.83371 12.3893 7.85066 12.1324C7.86761 11.8755 7.95092 11.6273 8.0925 11.4119L9.65213 9.03741L7.76869 4.65861Z" fill="#0B2128"/>
</svg>
